<svg viewBox="0 0 32 32" width="32" height="32" xmlns="http://www.w3.org/2000/svg">
  <rect width="32" height="32" rx="7" fill="#0f2942"/>
  <path d="M16 5 L25 8.5 L25 17 Q25 25 16 28 Q7 25 7 17 L7 8.5 Z" fill="none" stroke="#ffffff" stroke-width="1.5" stroke-linejoin="round"/>
  <line x1="16" y1="12" x2="11" y2="16" stroke="#60a5fa" stroke-width="1.2" stroke-linecap="round"/>
  <line x1="16" y1="12" x2="21" y2="16" stroke="#60a5fa" stroke-width="1.2" stroke-linecap="round"/>
  <line x1="11" y1="16" x2="11" y2="20" stroke="#60a5fa" stroke-width="1.2" stroke-linecap="round"/>
  <line x1="21" y1="16" x2="21" y2="20" stroke="#60a5fa" stroke-width="1.2" stroke-linecap="round"/>
  <line x1="11" y1="20" x2="16" y2="23" stroke="#60a5fa" stroke-width="1.2" stroke-linecap="round"/>
  <line x1="21" y1="20" x2="16" y2="23" stroke="#60a5fa" stroke-width="1.2" stroke-linecap="round"/>
  <circle cx="16" cy="12" r="2" fill="#60a5fa"/>
  <circle cx="11" cy="16" r="1.5" fill="#60a5fa"/>
  <circle cx="21" cy="16" r="1.5" fill="#60a5fa"/>
  <circle cx="11" cy="20" r="1.5" fill="#60a5fa"/>
  <circle cx="21" cy="20" r="1.5" fill="#60a5fa"/>
  <circle cx="16" cy="23" r="2" fill="#60a5fa"/>
</svg>
